<svg width="175" height="140" viewBox="0 0 175 140" fill="none" xmlns="http://www.w3.org/2000/svg">
<g id="Group 18">
<path id="passflow" d="M2.4866 138.425V107.533H8.62997V111.307H8.90789C9.18093 110.702 9.57586 110.088 10.0927 109.464C10.6193 108.83 11.3019 108.303 12.1405 107.884C12.9888 107.455 14.042 107.24 15.2999 107.24C16.9382 107.24 18.4496 107.669 19.8343 108.527C21.219 109.376 22.3258 110.658 23.1547 112.374C23.9835 114.081 24.398 116.221 24.398 118.796C24.398 121.302 23.9933 123.418 23.1839 125.144C22.3843 126.86 21.2921 128.162 19.9074 129.049C18.5325 129.927 16.9918 130.366 15.2853 130.366C14.0761 130.366 13.0474 130.166 12.199 129.766C11.3604 129.366 10.6729 128.864 10.1366 128.259C9.60024 127.645 9.19068 127.026 8.90789 126.402H8.71774V138.425H2.4866ZM8.58609 118.766C8.58609 120.102 8.77137 121.268 9.14192 122.262C9.51247 123.257 10.0488 124.032 10.7509 124.588C11.453 125.134 12.3062 125.407 13.3106 125.407C14.3248 125.407 15.1829 125.129 15.885 124.573C16.5871 124.008 17.1186 123.228 17.4794 122.233C17.8499 121.229 18.0352 120.073 18.0352 118.766C18.0352 117.469 17.8548 116.329 17.494 115.344C17.1332 114.359 16.6017 113.588 15.8996 113.033C15.1975 112.477 14.3345 112.199 13.3106 112.199C12.2965 112.199 11.4384 112.467 10.7363 113.003C10.0439 113.54 9.51247 114.3 9.14192 115.285C8.77137 116.27 8.58609 117.43 8.58609 118.766ZM33.723 130.424C32.2896 130.424 31.0121 130.176 29.8907 129.678C28.7693 129.171 27.8819 128.425 27.2286 127.44C26.585 126.446 26.2632 125.207 26.2632 123.725C26.2632 122.477 26.4924 121.429 26.9507 120.58C27.409 119.732 28.0331 119.049 28.8229 118.532C29.6128 118.016 30.5099 117.625 31.5143 117.362C32.5285 117.099 33.5914 116.914 34.703 116.806C36.0097 116.67 37.0629 116.543 37.8625 116.426C38.6621 116.299 39.2423 116.114 39.6031 115.87C39.9639 115.626 40.1443 115.266 40.1443 114.788V114.7C40.1443 113.774 39.8518 113.057 39.2667 112.55C38.6913 112.043 37.8722 111.789 36.8093 111.789C35.6879 111.789 34.7957 112.038 34.1326 112.535C33.4695 113.023 33.0307 113.637 32.8161 114.378L27.0531 113.91C27.3456 112.545 27.9209 111.365 28.7791 110.37C29.6372 109.366 30.744 108.596 32.0994 108.059C33.4646 107.513 35.0443 107.24 36.8386 107.24C38.0868 107.24 39.2813 107.387 40.4222 107.679C41.5729 107.972 42.5919 108.425 43.4793 109.039C44.3764 109.654 45.0834 110.444 45.6002 111.409C46.117 112.365 46.3754 113.51 46.3754 114.846V130H40.4661V126.884H40.2906C39.9298 127.587 39.4471 128.206 38.8425 128.742C38.2379 129.269 37.5114 129.683 36.6631 129.985C35.8147 130.278 34.8347 130.424 33.723 130.424ZM35.5075 126.124C36.4241 126.124 37.2335 125.943 37.9356 125.583C38.6377 125.212 39.1887 124.715 39.5885 124.091C39.9883 123.467 40.1882 122.76 40.1882 121.97V119.586C39.9932 119.712 39.725 119.829 39.3837 119.937C39.0521 120.034 38.6767 120.127 38.2574 120.214C37.8381 120.292 37.4188 120.366 36.9995 120.434C36.5802 120.492 36.1999 120.546 35.8586 120.595C35.1272 120.702 34.4885 120.873 33.9424 121.107C33.3963 121.341 32.9722 121.658 32.6699 122.057C32.3676 122.448 32.2164 122.935 32.2164 123.52C32.2164 124.369 32.5236 125.017 33.1379 125.466C33.762 125.904 34.5519 126.124 35.5075 126.124ZM68.6674 113.939L62.9628 114.291C62.8653 113.803 62.6557 113.364 62.3339 112.974C62.0121 112.574 61.5879 112.257 61.0613 112.023C60.5445 111.78 59.9253 111.658 59.2037 111.658C58.2383 111.658 57.424 111.862 56.7609 112.272C56.0979 112.672 55.7663 113.208 55.7663 113.881C55.7663 114.417 55.9808 114.871 56.4099 115.241C56.839 115.612 57.5752 115.909 58.6186 116.134L62.6849 116.953C64.8692 117.401 66.4977 118.123 67.5704 119.117C68.643 120.112 69.1793 121.419 69.1793 123.038C69.1793 124.51 68.7454 125.802 67.8775 126.914C67.0194 128.025 65.8395 128.893 64.3378 129.517C62.8458 130.132 61.1247 130.439 59.1744 130.439C56.2002 130.439 53.8307 129.82 52.0657 128.581C50.3104 127.333 49.2816 125.636 48.9793 123.491L55.1081 123.169C55.2934 124.076 55.7419 124.768 56.4538 125.246C57.1656 125.714 58.0774 125.948 59.189 125.948C60.2812 125.948 61.1588 125.739 61.8219 125.319C62.4948 124.89 62.8361 124.339 62.8458 123.666C62.8361 123.101 62.5971 122.638 62.1291 122.277C61.661 121.906 60.9394 121.624 59.9643 121.429L56.0735 120.653C53.8794 120.214 52.2461 119.454 51.1734 118.371C50.1105 117.289 49.5791 115.909 49.5791 114.232C49.5791 112.789 49.9691 111.546 50.7492 110.502C51.5391 109.459 52.6459 108.654 54.0696 108.089C55.503 107.523 57.1803 107.24 59.1013 107.24C61.9389 107.24 64.172 107.84 65.8005 109.039C67.4387 110.239 68.3943 111.872 68.6674 113.939ZM90.5608 113.939L84.8562 114.291C84.7587 113.803 84.549 113.364 84.2272 112.974C83.9054 112.574 83.4813 112.257 82.9547 112.023C82.4379 111.78 81.8186 111.658 81.097 111.658C80.1317 111.658 79.3174 111.862 78.6543 112.272C77.9912 112.672 77.6597 113.208 77.6597 113.881C77.6597 114.417 77.8742 114.871 78.3033 115.241C78.7323 115.612 79.4686 115.909 80.512 116.134L84.5783 116.953C86.7626 117.401 88.3911 118.123 89.4637 119.117C90.5364 120.112 91.0727 121.419 91.0727 123.038C91.0727 124.51 90.6388 125.802 89.7709 126.914C88.9128 128.025 87.7329 128.893 86.2311 129.517C84.7392 130.132 83.0181 130.439 81.0678 130.439C78.0936 130.439 75.724 129.82 73.959 128.581C72.2038 127.333 71.175 125.636 70.8727 123.491L77.0015 123.169C77.1867 124.076 77.6353 124.768 78.3471 125.246C79.059 125.714 79.9708 125.948 81.0824 125.948C82.1746 125.948 83.0522 125.739 83.7153 125.319C84.3881 124.89 84.7294 124.339 84.7392 123.666C84.7294 123.101 84.4905 122.638 84.0225 122.277C83.5544 121.906 82.8328 121.624 81.8576 121.429L77.9668 120.653C75.7728 120.214 74.1394 119.454 73.0668 118.371C72.0039 117.289 71.4724 115.909 71.4724 114.232C71.4724 112.789 71.8625 111.546 72.6426 110.502C73.4325 109.459 74.5392 108.654 75.9629 108.089C77.3964 107.523 79.0736 107.24 80.9947 107.24C83.8323 107.24 86.0654 107.84 87.6939 109.039C89.3321 110.239 90.2877 111.872 90.5608 113.939ZM105.843 107.533V112.213H91.9762V107.533H105.843ZM95.1503 130V105.909C95.1503 104.281 95.4672 102.93 96.1011 101.858C96.7446 100.785 97.6223 99.9804 98.7339 99.444C99.8456 98.9077 101.108 98.6395 102.522 98.6395C103.478 98.6395 104.351 98.7127 105.141 98.859C105.94 99.0052 106.535 99.1369 106.925 99.2539L105.813 103.935C105.57 103.857 105.267 103.783 104.907 103.715C104.556 103.647 104.195 103.613 103.824 103.613C102.908 103.613 102.269 103.827 101.908 104.256C101.547 104.676 101.367 105.266 101.367 106.026V130H95.1503ZM114.645 100.044V130H108.414V100.044H114.645ZM128.552 130.439C126.28 130.439 124.315 129.956 122.657 128.991C121.009 128.016 119.737 126.66 118.839 124.924C117.942 123.179 117.494 121.155 117.494 118.854C117.494 116.533 117.942 114.505 118.839 112.769C119.737 111.024 121.009 109.668 122.657 108.703C124.315 107.728 126.28 107.24 128.552 107.24C130.824 107.24 132.784 107.728 134.432 108.703C136.09 109.668 137.367 111.024 138.264 112.769C139.161 114.505 139.61 116.533 139.61 118.854C139.61 121.155 139.161 123.179 138.264 124.924C137.367 126.66 136.09 128.016 134.432 128.991C132.784 129.956 130.824 130.439 128.552 130.439ZM128.581 125.612C129.615 125.612 130.478 125.319 131.17 124.734C131.862 124.139 132.384 123.33 132.735 122.306C133.096 121.282 133.276 120.117 133.276 118.81C133.276 117.504 133.096 116.338 132.735 115.314C132.384 114.291 131.862 113.481 131.17 112.886C130.478 112.291 129.615 111.994 128.581 111.994C127.538 111.994 126.66 112.291 125.948 112.886C125.246 113.481 124.715 114.291 124.354 115.314C124.003 116.338 123.827 117.504 123.827 118.81C123.827 120.117 124.003 121.282 124.354 122.306C124.715 123.33 125.246 124.139 125.948 124.734C126.66 125.319 127.538 125.612 128.581 125.612ZM146.295 130L140.181 107.533H146.485L149.966 122.628H150.171L153.798 107.533H159.986L163.672 122.54H163.862L167.285 107.533H173.574L167.475 130H160.878L157.016 115.87H156.738L152.877 130H146.295Z" fill="#0065D0"/>
<g id="Group 15">
<g id="Vector">
<path d="M128.616 20.3553C122.122 8.23599 109.341 0 94.6308 0H35.7383C35.7383 11.2448 44.855 20.3553 56.0934 20.3553H128.616Z" fill="url(#paint0_linear_2142_16756)"/>
<path d="M76.449 77.0939H94.6311C105.278 77.0939 114.915 72.7734 121.878 65.8041C124.54 63.1488 126.823 60.0885 128.604 56.7388H56.0937C56.0937 67.9836 65.2041 77.0939 76.449 77.0939Z" fill="url(#paint1_linear_2142_16756)"/>
<path d="M66.265 48.9999C63.811 48.9999 61.4593 48.2895 59.2821 47.4939C55.2339 45.7671 52.4308 43.4535 50.4926 41.132C46.691 36.5789 46.2153 32.0013 46.1958 31.7897C46.1948 31.7848 46.1948 31.7819 46.1948 31.7819C46.0076 30.6715 46 29.164 46 27.9999H66.265V48.9999Z" fill="url(#paint2_linear_2142_16756)"/>
<path d="M133.174 38.5374C133.174 42.0543 132.394 45.7522 131.5 49H114V28H131.5C132.394 31.2468 133.174 35.0147 133.174 38.5374Z" fill="url(#paint3_linear_2142_16756)"/>
<path d="M74 28H86V49H74V28Z" fill="url(#paint4_linear_2142_16756)"/>
<path d="M94 28H106V49H94V28Z" fill="url(#paint5_linear_2142_16756)"/>
</g>
</g>
</g>
<defs>
<linearGradient id="paint0_linear_2142_16756" x1="108.399" y1="-39.7679" x2="7.61856" y2="-16.9283" gradientUnits="userSpaceOnUse">
<stop stop-color="#48A7F8"/>
<stop offset="0.596154" stop-color="#0065D0"/>
</linearGradient>
<linearGradient id="paint1_linear_2142_16756" x1="35.6123" y1="-53.9285" x2="156.221" y2="-28.6847" gradientUnits="userSpaceOnUse">
<stop stop-color="#48A7F8"/>
<stop offset="0.596154" stop-color="#0065D0"/>
</linearGradient>
<linearGradient id="paint2_linear_2142_16756" x1="100" y1="28" x2="100" y2="49" gradientUnits="userSpaceOnUse">
<stop stop-color="#FFC462"/>
<stop offset="1" stop-color="#FFB323"/>
</linearGradient>
<linearGradient id="paint3_linear_2142_16756" x1="100" y1="28" x2="100" y2="49" gradientUnits="userSpaceOnUse">
<stop stop-color="#FFC462"/>
<stop offset="1" stop-color="#FFB323"/>
</linearGradient>
<linearGradient id="paint4_linear_2142_16756" x1="100" y1="28" x2="100" y2="49" gradientUnits="userSpaceOnUse">
<stop stop-color="#FFC462"/>
<stop offset="1" stop-color="#FFB323"/>
</linearGradient>
<linearGradient id="paint5_linear_2142_16756" x1="100" y1="28" x2="100" y2="49" gradientUnits="userSpaceOnUse">
<stop stop-color="#FFC462"/>
<stop offset="1" stop-color="#FFB323"/>
</linearGradient>
</defs>
</svg>
