<svg width="22" height="22" viewBox="0 0 22 22" fill="none" xmlns="http://www.w3.org/2000/svg">
<path fill-rule="evenodd" clip-rule="evenodd" d="M18.1964 18.0699C15.1402 21.1263 10.6148 21.7867 6.91142 20.074C6.36471 19.8539 5.91648 19.676 5.49037 19.676C4.30349 19.683 2.82617 20.8339 2.05836 20.067C1.29055 19.2991 2.44226 17.8206 2.44226 16.6266C2.44226 16.2004 2.27142 15.7602 2.05132 15.2124C0.337831 11.5096 0.999109 6.98269 4.05526 3.92721C7.9566 0.0244319 14.295 0.0244322 18.1964 3.9262C22.1047 7.83501 22.0977 14.1681 18.1964 18.0699Z" stroke="#9E9E9E" stroke-width="1.5" stroke-linecap="round" stroke-linejoin="round"/>
<path d="M15.0643 11.4131H15.0733" stroke="#9E9E9E" stroke-width="2" stroke-linecap="round" stroke-linejoin="round"/>
<path d="M11.0554 11.4131H11.0644" stroke="#9E9E9E" stroke-width="2" stroke-linecap="round" stroke-linejoin="round"/>
<path d="M7.0464 11.4131H7.0554" stroke="#9E9E9E" stroke-width="2" stroke-linecap="round" stroke-linejoin="round"/>
</svg>
