<svg width="20" height="20" viewBox="0 0 20 20" fill="none" xmlns="http://www.w3.org/2000/svg">
<g id="calendar-clock">
<path id="Vector" d="M17.1476 6.42624V5.23506C17.1476 4.81384 16.9803 4.40986 16.6824 4.11201C16.3846 3.81416 15.9806 3.64683 15.5594 3.64683H4.44175C4.02052 3.64683 3.61655 3.81416 3.3187 4.11201C3.02085 4.40986 2.85352 4.81384 2.85352 5.23506V16.3527C2.85352 16.7739 3.02085 17.1779 3.3187 17.4758C3.61655 17.7736 4.02052 17.9409 4.44175 17.9409H7.22116M13.177 2.05859V5.23506M6.8241 2.05859V5.23506M2.85352 8.41153H6.8241M14.3682 14.3674L13.177 13.4145V11.588M17.9417 13.1762C17.9417 15.8077 15.8085 17.9409 13.177 17.9409C10.5456 17.9409 8.41234 15.8077 8.41234 13.1762C8.41234 10.5448 10.5456 8.41153 13.177 8.41153C15.8085 8.41153 17.9417 10.5448 17.9417 13.1762Z" stroke="#0065D0" stroke-width="1.58824" stroke-linecap="round" stroke-linejoin="round"/>
</g>
</svg>
