<svg width="20" height="20" viewBox="0 0 20 20" fill="none" xmlns="http://www.w3.org/2000/svg">
<path d="M13.3327 8.33366H14.9993M13.3327 11.667H14.9993M5.14095 12.5004C5.31273 12.0121 5.63187 11.5891 6.0543 11.2899C6.47673 10.9907 6.98163 10.83 7.49928 10.83C8.01694 10.83 8.52184 10.9907 8.94427 11.2899C9.3667 11.5891 9.68583 12.0121 9.85762 12.5004M9.16602 9.16699C9.16602 10.0875 8.41982 10.8337 7.49935 10.8337C6.57887 10.8337 5.83268 10.0875 5.83268 9.16699C5.83268 8.24652 6.57887 7.50033 7.49935 7.50033C8.41982 7.50033 9.16602 8.24652 9.16602 9.16699ZM3.33268 4.16699H16.666C17.5865 4.16699 18.3327 4.91318 18.3327 5.83366V14.167C18.3327 15.0875 17.5865 15.8337 16.666 15.8337H3.33268C2.41221 15.8337 1.66602 15.0875 1.66602 14.167V5.83366C1.66602 4.91318 2.41221 4.16699 3.33268 4.16699Z" stroke="#0065D0" stroke-width="1.66667" stroke-linecap="round" stroke-linejoin="round"/>
</svg>
