<svg width="12" height="12" viewBox="0 0 12 12" fill="none" xmlns="http://www.w3.org/2000/svg">
<g clip-path="url(#clip0_2406_8361)">
<path d="M6 0.5C9.03757 0.5 11.5 2.96243 11.5 6C11.5 9.03757 9.03757 11.5 6 11.5C2.96243 11.5 0.5 9.03757 0.5 6C0.5 2.96243 2.96243 0.5 6 0.5ZM7.85352 4.14648C7.65825 3.95122 7.34175 3.95122 7.14648 4.14648L6 5.29297L4.85352 4.14648C4.65825 3.95122 4.34175 3.95122 4.14648 4.14648C3.95122 4.34175 3.95122 4.65825 4.14648 4.85352L5.29297 6L4.14648 7.14648C3.95122 7.34175 3.95122 7.65825 4.14648 7.85352C4.34175 8.04878 4.65825 8.04878 4.85352 7.85352L6 6.70703L7.14648 7.85352C7.34175 8.04878 7.65825 8.04878 7.85352 7.85352C8.04878 7.65825 8.04878 7.34175 7.85352 7.14648L6.70703 6L7.85352 4.85352C8.04878 4.65825 8.04878 4.34175 7.85352 4.14648Z" fill="white"/>
</g>
<defs>
<clipPath id="clip0_2406_8361">
<rect width="12" height="12" fill="white"/>
</clipPath>
</defs>
</svg>
