<?xml version="1.0" encoding="UTF-8"?>
<svg version="1.1" xmlns="http://www.w3.org/2000/svg" width="512" height="512">
<path d="M0 0 C7.53167812 5.06057744 13.3434826 11.23452151 15.5234375 20.23046875 C15.94395264 22.85273769 16.14043817 25.34492827 16.1875 28 C16.21328125 28.85980469 16.2390625 29.71960938 16.265625 30.60546875 C15.37770805 39.28379984 12.21849589 45.62157268 6.9375 52.4375 C5.75751358 54.01442827 4.57915537 55.59257607 3.40234375 57.171875 C2.52231689 58.34266602 2.52231689 58.34266602 1.62451172 59.53710938 C-0.8397014 62.86076586 -3.17595891 66.26501857 -5.5 69.6875 C-9.58583943 75.67367765 -13.71488948 81.62767658 -17.875 87.5625 C-18.464021 88.40280762 -19.05304199 89.24311523 -19.65991211 90.10888672 C-20.86115703 91.82206009 -22.06257396 93.53511286 -23.26416016 95.24804688 C-26.19974984 99.43423125 -29.13093609 103.62349592 -32.0625 107.8125 C-33.22914481 109.47918197 -34.3958115 111.14584862 -35.5625 112.8125 C-36.14 113.6375 -36.7175 114.4625 -37.3125 115.3125 C-84.5625 182.8125 -84.5625 182.8125 -86.31201172 185.31176758 C-87.48034967 186.98084507 -88.64864384 188.64995322 -89.81689453 190.3190918 C-92.70763489 194.44912338 -95.59909854 198.57864446 -98.4921875 202.70703125 C-104.69811076 211.56457626 -110.88933281 220.43208929 -117.0625 229.3125 C-123.80322179 239.00936646 -130.5673139 248.68959183 -137.34472656 258.36083984 C-140.2521209 262.51036428 -143.15718001 266.66152306 -146.0625 270.8125 C-147.22915575 272.47917431 -148.39582241 274.14584098 -149.5625 275.8125 C-150.14 276.6375 -150.7175 277.4625 -151.3125 278.3125 C-212.5625 365.8125 -212.5625 365.8125 -214.31274414 368.31274414 C-215.47872811 369.97850525 -216.6445811 371.64435804 -217.81030273 373.31030273 C-220.73634453 377.49158827 -223.66468484 381.67122802 -226.59765625 385.84765625 C-232.42877254 394.15607049 -238.22068527 402.48745322 -243.9375 410.875 C-245.51441066 413.17912106 -247.09284687 415.48217932 -248.67285156 417.78417969 C-249.53720536 419.04578393 -250.39900785 420.30914487 -251.25683594 421.57519531 C-258.49108245 432.22688679 -266.30843179 440.4237486 -279.125 443.5625 C-290.82507389 444.55825097 -300.3120001 442.71265533 -309.796875 435.4921875 C-315.79857637 430.0334972 -320.00549008 422.81736771 -324.49414062 416.12939453 C-327.23965081 412.07352721 -330.0597645 408.07013493 -332.875 404.0625 C-334.06907049 402.35941712 -335.2630804 400.65629176 -336.45703125 398.953125 C-337.05338379 398.10298828 -337.64973633 397.25285156 -338.26416016 396.37695312 C-341.19974984 392.19076875 -344.13093609 388.00150408 -347.0625 383.8125 C-348.22914481 382.14581803 -349.3958115 380.47915138 -350.5625 378.8125 C-366.89583333 355.47916667 -383.22916667 332.14583333 -399.5625 308.8125 C-400.1404834 307.98693604 -400.7184668 307.16137207 -401.31396484 306.31079102 C-402.47622976 304.65015755 -403.63801656 302.98918935 -404.79931641 301.32788086 C-407.77942419 297.0659838 -410.76854665 292.8108736 -413.7734375 288.56640625 C-438.96451301 252.92984445 -438.96451301 252.92984445 -435.6015625 229.6171875 C-432.42047098 215.28356337 -424.781507 204.93878937 -412.94921875 196.609375 C-404.20707931 191.16771851 -396.03772121 189.61892582 -385.9375 189.5625 C-384.58785156 189.5315625 -384.58785156 189.5315625 -383.2109375 189.5 C-369.62962531 189.42194648 -358.94880388 194.64374828 -349.25 204 C-342.33050562 210.97174635 -337.11588483 219.12287264 -331.73779297 227.29492188 C-328.98226289 231.4358467 -326.11492298 235.49684914 -323.25 239.5625 C-322.07900212 241.23017043 -320.90843646 242.89814443 -319.73828125 244.56640625 C-319.14225098 245.41605957 -318.5462207 246.26571289 -317.93212891 247.14111328 C-315.27606244 250.93618762 -312.63300233 254.74024031 -309.99072266 258.54492188 C-307.96682226 261.45779826 -305.93868378 264.36768852 -303.91015625 267.27734375 C-301.44173834 270.82011175 -298.99190471 274.37444884 -296.55859375 277.94140625 C-295.49748513 279.48183235 -294.43629258 281.02220064 -293.375 282.5625 C-292.90626465 283.25947998 -292.4375293 283.95645996 -291.95458984 284.67456055 C-289.39845295 288.36174382 -287.27285391 290.92438712 -283.0625 292.8125 C-277.9047408 293.36511706 -275.28126027 292.71370898 -271.0625 289.8125 C-265.28159162 284.26064648 -260.40563134 277.80166533 -255.50146484 271.47924805 C-251.77518794 266.68328485 -247.93880516 261.98776642 -244.0625 257.3125 C-239.75816984 252.11824258 -235.51578955 246.88808193 -231.375 241.5625 C-227.43373892 236.49516433 -223.35386571 231.57418766 -219.18017578 226.69726562 C-215.46192563 222.33276386 -211.91737713 217.85002261 -208.3984375 213.32421875 C-204.1220134 207.84316814 -199.69656491 202.4913715 -195.26123047 197.13867188 C-191.56317325 192.66490482 -187.93771363 188.14460279 -184.375 183.5625 C-180.43373892 178.49516433 -176.35386571 173.57418766 -172.18017578 168.69726562 C-168.46192563 164.33276386 -164.91737713 159.85002261 -161.3984375 155.32421875 C-157.1220134 149.84316814 -152.69656491 144.4913715 -148.26123047 139.13867188 C-144.56317325 134.66490482 -140.93771363 130.14460279 -137.375 125.5625 C-133.43373892 120.49516433 -129.35386571 115.57418766 -125.18017578 110.69726562 C-121.46429871 106.33554939 -117.92211347 101.8556116 -114.4050293 97.33300781 C-110.05251751 91.75527049 -105.55460343 86.30255972 -101.04589844 80.85083008 C-97.37689263 76.41315239 -93.74809933 71.94814193 -90.1640625 67.44140625 C-87.4195997 64.00827714 -84.64791674 60.59766332 -81.875 57.1875 C-81.32078369 56.5056665 -80.76656738 55.82383301 -80.19555664 55.12133789 C-77.37415795 51.65143498 -74.55004343 48.18377492 -71.72265625 44.71875 C-66.56954826 38.39777721 -61.45092871 32.05749309 -56.4375 25.625 C-24.98859121 -14.5806751 -24.98859121 -14.5806751 0 0 Z " fill="#05BC41" transform="translate(466.0625,36.1875)"/>
</svg>
