<svg width="20" height="14" viewBox="0 0 20 14" fill="none" xmlns="http://www.w3.org/2000/svg">
<path d="M1.7181 7.28981C1.64865 7.10272 1.64865 6.89691 1.7181 6.70981C2.39452 5.06969 3.5427 3.66735 5.01708 2.68056C6.49146 1.69378 8.22564 1.16699 9.99977 1.16699C11.7739 1.16699 13.5081 1.69378 14.9825 2.68056C16.4568 3.66735 17.605 5.06969 18.2814 6.70981C18.3509 6.89691 18.3509 7.10272 18.2814 7.28981C17.605 8.92993 16.4568 10.3323 14.9825 11.3191C13.5081 12.3058 11.7739 12.8326 9.99977 12.8326C8.22564 12.8326 6.49146 12.3058 5.01708 11.3191C3.5427 10.3323 2.39452 8.92993 1.7181 7.28981Z" stroke="#72777A" stroke-width="2" stroke-linecap="round" stroke-linejoin="round"/>
<path d="M9.99976 9.49971C11.3805 9.49971 12.4998 8.38043 12.4998 6.99972C12.4998 5.619 11.3805 4.49972 9.99976 4.49972C8.61904 4.49972 7.49976 5.619 7.49976 6.99972C7.49976 8.38043 8.61904 9.49971 9.99976 9.49971Z" stroke="#72777A" stroke-width="2" stroke-linecap="round" stroke-linejoin="round"/>
</svg>
