<svg width="21" height="21" viewBox="0 0 21 21" fill="none" xmlns="http://www.w3.org/2000/svg">
<path d="M13.2998 19.9995V11.9995C13.2998 11.7343 13.1944 11.4799 13.0069 11.2924C12.8194 11.1049 12.565 10.9995 12.2998 10.9995H8.2998C8.03459 10.9995 7.78023 11.1049 7.5927 11.2924C7.40516 11.4799 7.2998 11.7343 7.2998 11.9995V19.9995M1.2998 8.99948C1.29974 8.70855 1.36314 8.4211 1.48559 8.1572C1.60805 7.89329 1.7866 7.65928 2.0088 7.47148L9.0088 1.47248C9.36979 1.16739 9.82716 1 10.2998 1C10.7724 1 11.2298 1.16739 11.5908 1.47248L18.5908 7.47148C18.813 7.65928 18.9916 7.89329 19.114 8.1572C19.2365 8.4211 19.2999 8.70855 19.2998 8.99948V17.9995C19.2998 18.5299 19.0891 19.0386 18.714 19.4137C18.3389 19.7888 17.8302 19.9995 17.2998 19.9995H3.2998C2.76937 19.9995 2.26066 19.7888 1.88559 19.4137C1.51052 19.0386 1.2998 18.5299 1.2998 17.9995V8.99948Z" stroke="white" stroke-width="2" stroke-linecap="round" stroke-linejoin="round"/>
</svg>
