<svg width="20" height="20" viewBox="0 0 20 20" fill="none" xmlns="http://www.w3.org/2000/svg">
<g id="id-card">
<path id="Vector" d="M13.1762 8.41199H14.7645M13.1762 11.5885H14.7645M5.37 12.3826C5.5337 11.9173 5.83782 11.5142 6.24037 11.2291C6.64292 10.944 7.12406 10.7909 7.61735 10.7909C8.11065 10.7909 8.59179 10.944 8.99434 11.2291C9.39689 11.5142 9.70101 11.9173 9.86471 12.3826M9.20565 9.20611C9.20565 10.0833 8.49457 10.7943 7.61742 10.7943C6.74026 10.7943 6.02918 10.0833 6.02918 9.20611C6.02918 8.32895 6.74026 7.61788 7.61742 7.61788C8.49457 7.61788 9.20565 8.32895 9.20565 9.20611ZM3.64683 4.44141H16.3527C17.2299 4.44141 17.9409 5.15248 17.9409 6.02964V13.9708C17.9409 14.848 17.2299 15.5591 16.3527 15.5591H3.64683C2.76967 15.5591 2.05859 14.848 2.05859 13.9708V6.02964C2.05859 5.15248 2.76967 4.44141 3.64683 4.44141Z" stroke="#0065D0" stroke-width="1.58824" stroke-linecap="round" stroke-linejoin="round"/>
</g>
</svg>
