<svg width="161" height="160" viewBox="0 0 161 160" fill="none" xmlns="http://www.w3.org/2000/svg">
<rect x="0.5" width="160" height="160" rx="80" fill="#F2F4F5"/>
<path d="M80.5003 106.667H80.5337M68.8337 94.7638C71.9491 91.71 76.1378 89.9995 80.5003 89.9995C84.8629 89.9995 89.0515 91.71 92.167 94.7638M57.167 82.8635C61.8938 78.2298 67.893 75.1084 74.4003 73.8968M103.833 82.8634C101.826 80.896 99.5785 79.1902 97.1434 77.7868M47.167 69.4003C51.289 65.7139 55.994 62.7368 61.0903 60.5903M113.833 69.4C108.749 64.8527 102.788 61.3939 96.3173 59.2361C89.8465 57.0784 83.0026 56.2675 76.2067 56.8534M47.167 46.667L113.834 113.334" stroke="#090A0A" stroke-width="6.66667" stroke-linecap="round" stroke-linejoin="round"/>
</svg>
