<svg width="25" height="24" viewBox="0 0 25 24" fill="none" xmlns="http://www.w3.org/2000/svg">
<path d="M3.89941 7V5C3.89941 4.46957 4.11013 3.96086 4.4852 3.58579C4.86027 3.21071 5.36898 3 5.89941 3H7.89941M17.8994 3H19.8994C20.4298 3 20.9386 3.21071 21.3136 3.58579C21.6887 3.96086 21.8994 4.46957 21.8994 5V7M21.8994 17V19C21.8994 19.5304 21.6887 20.0391 21.3136 20.4142C20.9386 20.7893 20.4298 21 19.8994 21H17.8994M7.89941 21H5.89941C5.36898 21 4.86027 20.7893 4.4852 20.4142C4.11013 20.0391 3.89941 19.5304 3.89941 19V17" stroke="#9BDCFD" stroke-width="2" stroke-linecap="round" stroke-linejoin="round"/>
<path d="M8.89941 8L16.8994 8" stroke="#9BDCFD" stroke-width="2" stroke-linecap="round" stroke-linejoin="round"/>
<path d="M8.89941 11L16.8994 11" stroke="#9BDCFD" stroke-width="2" stroke-linecap="round" stroke-linejoin="round"/>
<path d="M12.8994 11L12.8994 18" stroke="#9BDCFD" stroke-width="2" stroke-linecap="round" stroke-linejoin="round"/>
</svg>
