<?xml version="1.0" standalone="no"?>
<!DOCTYPE svg PUBLIC "-//W3C//DTD SVG 20010904//EN"
 "http://www.w3.org/TR/2001/REC-SVG-20010904/DTD/svg10.dtd">
<svg version="1.0" xmlns="http://www.w3.org/2000/svg"
 width="512.000000pt" height="512.000000pt" viewBox="0 0 512.000000 512.000000"
 preserveAspectRatio="xMidYMid meet">

<g transform="translate(0.000000,512.000000) scale(0.100000,-0.100000)"
fill="#000000" stroke="none">
<path d="M2297 4455 c-369 -52 -714 -208 -1009 -454 -203 -170 -365 -381 -494
-644 -44 -90 -54 -119 -54 -161 1 -163 162 -263 307 -191 60 30 66 38 155 215
220 438 627 736 1113 815 133 22 386 20 527 -4 317 -55 583 -194 818 -430 112
-112 253 -292 239 -305 -2 -3 -88 9 -189 25 -201 33 -248 32 -301 -4 -106 -72
-134 -206 -63 -308 47 -69 66 -74 572 -160 257 -43 484 -79 505 -79 87 0 171
61 201 147 7 21 51 239 96 485 l84 447 -17 55 c-54 171 -285 204 -383 56 -20
-30 -34 -86 -68 -264 -23 -124 -44 -227 -47 -230 -3 -3 -23 25 -44 62 -64 109
-183 260 -290 367 -282 284 -653 477 -1055 550 -129 24 -468 29 -603 10z"/>
<path d="M610 2334 c-46 -20 -88 -61 -107 -104 -17 -40 -183 -912 -183 -962 0
-55 43 -133 90 -164 86 -57 214 -41 284 36 42 46 43 50 91 314 34 183 41 207
52 190 8 -10 40 -59 72 -109 190 -295 475 -544 796 -696 275 -130 539 -189
843 -189 332 0 611 66 901 215 206 105 352 215 526 397 158 165 300 375 372
551 48 119 23 224 -69 285 -36 24 -51 27 -119 27 -70 0 -81 -3 -120 -30 -35
-25 -54 -53 -113 -170 -85 -167 -150 -264 -253 -374 -294 -317 -677 -481
-1123 -481 -435 0 -787 145 -1090 449 -112 112 -252 292 -239 305 3 3 89 -9
193 -25 123 -20 203 -29 231 -25 128 20 211 149 175 276 -13 47 -61 103 -105
124 -35 17 -980 176 -1040 176 -16 -1 -46 -8 -65 -16z"/>
</g>
</svg>
