<svg width="22" height="21" viewBox="0 0 22 21" fill="none" xmlns="http://www.w3.org/2000/svg">
<path d="M13 9.99993C13 10.5304 12.7893 11.0391 12.4142 11.4141C12.0392 11.7892 11.5304 11.9999 11 11.9999C10.4696 11.9999 9.96087 11.7892 9.5858 11.4141C9.21073 11.0391 9.00001 10.5304 9.00001 9.99993C9.00001 8.93906 9.42144 7.92165 10.1716 7.1715C10.9217 6.42135 11.9391 5.99993 13 5.99993C14.0609 5.99993 15.0783 6.42135 15.8284 7.1715C16.5786 7.92165 17 8.93906 17 9.99993C17 11.5912 16.3679 13.1173 15.2427 14.2426C14.1174 15.3678 12.5913 15.9999 11 15.9999C9.40871 15.9999 7.88259 15.3678 6.75737 14.2426C5.63215 13.1173 5.00001 11.5912 5.00001 9.99993C5.00001 7.8782 5.84287 5.84336 7.34316 4.34307C8.84345 2.84278 10.8783 1.99993 13 1.99993C15.1217 1.99993 17.1566 2.84278 18.6569 4.34307C20.1572 5.84336 21 7.8782 21 9.99993C21 12.6521 19.9464 15.1956 18.0711 17.071C16.1957 18.9464 13.6522 19.9999 11 19.9999C8.34785 19.9999 5.80431 18.9464 3.92894 17.071C2.05358 15.1956 1.00001 12.6521 1.00001 9.99993C0.996325 7.39352 1.84631 4.85762 3.42001 2.77993C3.57324 2.55395 3.77111 2.36174 4.00144 2.21513C4.23177 2.06853 4.48967 1.97063 4.75927 1.92748C5.02887 1.88433 5.30444 1.89683 5.56902 1.96423C5.8336 2.03162 6.08158 2.15247 6.29769 2.31933C6.51379 2.4862 6.69344 2.69554 6.82557 2.93447C6.9577 3.1734 7.0395 3.43685 7.06595 3.70859C7.0924 3.98034 7.06293 4.25462 6.97936 4.51454C6.89579 4.77446 6.75988 5.01452 6.58001 5.21993" stroke="#090A0A" stroke-width="2" stroke-linecap="round" stroke-linejoin="round"/>
</svg>
