<svg width="20" height="20" viewBox="0 0 20 20" fill="none" xmlns="http://www.w3.org/2000/svg">
<g id="shell">
<path id="Vector" d="M11.588 9.20582C11.588 9.62705 11.4207 10.031 11.1228 10.3289C10.825 10.6267 10.421 10.7941 9.99978 10.7941C9.57855 10.7941 9.17458 10.6267 8.87673 10.3289C8.57888 10.031 8.41154 9.62705 8.41154 9.20582C8.41154 8.36337 8.74621 7.55542 9.34191 6.95972C9.93761 6.36402 10.7456 6.02935 11.588 6.02935C12.4305 6.02935 13.2384 6.36402 13.8341 6.95972C14.4298 7.55542 14.7645 8.36337 14.7645 9.20582C14.7645 10.4695 14.2625 11.6814 13.3689 12.575C12.4754 13.4685 11.2635 13.9705 9.99978 13.9705C8.7361 13.9705 7.52418 13.4685 6.63062 12.575C5.73707 11.6814 5.23507 10.4695 5.23507 9.20582C5.23507 7.52092 5.9044 5.90502 7.09581 4.71362C8.28721 3.52221 9.90311 2.85288 11.588 2.85288C13.2729 2.85288 14.8888 3.52221 16.0802 4.71362C17.2716 5.90502 17.941 7.52092 17.941 9.20582C17.941 11.312 17.1043 13.3318 15.615 14.8211C14.1258 16.3103 12.1059 17.147 9.99978 17.147C7.89365 17.147 5.87378 16.3103 4.38452 14.8211C2.89526 13.3318 2.0586 11.312 2.0586 9.20582C2.05568 7.13603 2.73066 5.12223 3.98037 3.4723C4.10205 3.29284 4.25918 3.1402 4.44209 3.02378C4.625 2.90736 4.8298 2.82962 5.0439 2.79535C5.25799 2.76109 5.47683 2.77102 5.68693 2.82453C5.89704 2.87805 6.09397 2.97402 6.26558 3.10653C6.43719 3.23904 6.57985 3.40528 6.68478 3.59502C6.7897 3.78476 6.85467 3.99397 6.87567 4.20976C6.89668 4.42556 6.87328 4.64337 6.80691 4.84978C6.74054 5.05619 6.63262 5.24683 6.48978 5.40994" stroke="#0065D0" stroke-width="1.58824" stroke-linecap="round" stroke-linejoin="round"/>
</g>
</svg>
