<svg width="20" height="20" viewBox="0 0 20 20" fill="none" xmlns="http://www.w3.org/2000/svg">
<path d="M10.7939 4.44141V6.02964M10.7939 13.9708V15.5591M10.7939 9.20611V10.7943M2.05859 7.61788C2.69043 7.61788 3.29639 7.86887 3.74317 8.31565C4.18995 8.76243 4.44095 9.36839 4.44095 10.0002C4.44095 10.6321 4.18995 11.238 3.74317 11.6848C3.29639 12.1316 2.69043 12.3826 2.05859 12.3826V13.9708C2.05859 14.392 2.22593 14.796 2.52378 15.0939C2.82163 15.3917 3.2256 15.5591 3.64683 15.5591H16.3527C16.7739 15.5591 17.1779 15.3917 17.4758 15.0939C17.7736 14.796 17.9409 14.392 17.9409 13.9708V12.3826C17.3091 12.3826 16.7031 12.1316 16.2564 11.6848C15.8096 11.238 15.5586 10.6321 15.5586 10.0002C15.5586 9.36839 15.8096 8.76243 16.2564 8.31565C16.7031 7.86887 17.3091 7.61788 17.9409 7.61788V6.02964C17.9409 5.60842 17.7736 5.20444 17.4758 4.90659C17.1779 4.60874 16.7739 4.44141 16.3527 4.44141H3.64683C3.2256 4.44141 2.82163 4.60874 2.52378 4.90659C2.22593 5.20444 2.05859 5.60842 2.05859 6.02964V7.61788Z" stroke="#0065D0" stroke-width="1.58824" stroke-linecap="round" stroke-linejoin="round"/>
</svg>
