<svg width="25" height="24" viewBox="0 0 25 24" fill="none" xmlns="http://www.w3.org/2000/svg">
<path d="M8.5 3.1001V7.0001C8.5 8.06096 8.92143 9.07838 9.67157 9.82853C10.4217 10.5787 11.4391 11.0001 12.5 11.0001C13.5609 11.0001 14.5783 10.5787 15.3284 9.82853C16.0786 9.07838 16.5 8.06096 16.5 7.0001V3.1001M9.5 15L8.5 14M15.5 15L16.5 14M8.5 19L6.5 22M16.5 19L18.5 22M9.5 19C6.7 19 4.5 16.8 4.5 14V10C4.5 7.87827 5.34285 5.84344 6.84315 4.34315C8.34344 2.84285 10.3783 2 12.5 2C14.6217 2 16.6566 2.84285 18.1569 4.34315C19.6571 5.84344 20.5 7.87827 20.5 10V14C20.5 16.8 18.3 19 15.5 19H9.5Z" stroke="#9BDCFD" stroke-width="2" stroke-linecap="round" stroke-linejoin="round"/>
</svg>
