<svg width="30" height="24" viewBox="0 0 30 24" fill="none" xmlns="http://www.w3.org/2000/svg">
<g id="Vector">
<path d="M28.5967 6.33677C26.5973 2.56393 22.6619 0 18.1327 0H0C0 3.5006 2.807 6.33677 6.26726 6.33677H28.5967Z" fill="url(#paint0_linear_2546_8675)"/>
<path d="M12.5347 24H18.1328C21.411 24 24.3783 22.655 26.5222 20.4854C27.3417 19.6588 28.0445 18.7061 28.5928 17.6633H6.26736C6.26736 21.1639 9.0724 24 12.5347 24Z" fill="url(#paint1_linear_2546_8675)"/>
<path d="M9.39905 15.2541C8.64345 15.2541 7.91938 15.0329 7.24904 14.7852C6.00263 14.2477 5.13956 13.5274 4.54277 12.8048C3.3723 11.3873 3.22583 9.96229 3.21983 9.8964C3.21952 9.89489 3.21952 9.89398 3.21952 9.89398C3.16187 9.54829 3.15953 9.07901 3.15953 8.7166H9.39905V15.2541Z" fill="url(#paint2_linear_2546_8675)"/>
<path d="M30 11.997C30 13.0919 29.7599 14.243 29.4846 15.2541H24.0964V8.71664H29.4846C29.7599 9.7274 30 10.9004 30 11.997Z" fill="url(#paint3_linear_2546_8675)"/>
<path d="M11.7806 8.71664H15.4754V15.2541H11.7806V8.71664Z" fill="url(#paint4_linear_2546_8675)"/>
<path d="M17.9385 8.71664H21.6333V15.2541H17.9385V8.71664Z" fill="url(#paint5_linear_2546_8675)"/>
</g>
<defs>
<linearGradient id="paint0_linear_2546_8675" x1="22.3719" y1="-12.3801" x2="-8.69103" y2="-5.41755" gradientUnits="userSpaceOnUse">
<stop stop-color="#48A7F8"/>
<stop offset="0.596154" stop-color="#0065D0"/>
</linearGradient>
<linearGradient id="paint1_linear_2546_8675" x1="-0.0387867" y1="-16.7884" x2="37.1303" y2="-9.09412" gradientUnits="userSpaceOnUse">
<stop stop-color="#48A7F8"/>
<stop offset="0.596154" stop-color="#0065D0"/>
</linearGradient>
<linearGradient id="paint2_linear_2546_8675" x1="19.7859" y1="8.71664" x2="19.7859" y2="15.2541" gradientUnits="userSpaceOnUse">
<stop stop-color="#FFC462"/>
<stop offset="1" stop-color="#FFB323"/>
</linearGradient>
<linearGradient id="paint3_linear_2546_8675" x1="19.7859" y1="8.71664" x2="19.7859" y2="15.2541" gradientUnits="userSpaceOnUse">
<stop stop-color="#FFC462"/>
<stop offset="1" stop-color="#FFB323"/>
</linearGradient>
<linearGradient id="paint4_linear_2546_8675" x1="19.7859" y1="8.71664" x2="19.7859" y2="15.2541" gradientUnits="userSpaceOnUse">
<stop stop-color="#FFC462"/>
<stop offset="1" stop-color="#FFB323"/>
</linearGradient>
<linearGradient id="paint5_linear_2546_8675" x1="19.7859" y1="8.71664" x2="19.7859" y2="15.2541" gradientUnits="userSpaceOnUse">
<stop stop-color="#FFC462"/>
<stop offset="1" stop-color="#FFB323"/>
</linearGradient>
</defs>
</svg>
