<svg width="23" height="21" viewBox="0 0 23 21" fill="none" xmlns="http://www.w3.org/2000/svg">
<path d="M12.0005 8.00024V12.0002M12.0005 16.0002H12.0105M21.7304 17.0002L13.7304 3.00022C13.556 2.69243 13.303 2.43641 12.9973 2.25829C12.6917 2.08017 12.3442 1.98633 11.9904 1.98633C11.6366 1.98633 11.2892 2.08017 10.9835 2.25829C10.6778 2.43641 10.4249 2.69243 10.2504 3.00022L2.25042 17.0002C2.0741 17.3056 1.98165 17.6521 1.98243 18.0047C1.98321 18.3573 2.0772 18.7035 2.25486 19.008C2.43253 19.3126 2.68757 19.5648 2.99411 19.7391C3.30066 19.9133 3.64783 20.0034 4.00042 20.0002H20.0004C20.3513 19.9999 20.6959 19.9072 20.9997 19.7315C21.3035 19.5558 21.5556 19.3033 21.7309 18.9993C21.9062 18.6954 21.9985 18.3506 21.9984 17.9997C21.9983 17.6488 21.9059 17.3041 21.7304 17.0002Z" stroke="#090A0A" stroke-width="2" stroke-linecap="round" stroke-linejoin="round"/>
</svg>
