<svg width="20" height="20" viewBox="0 0 20 20" fill="none" xmlns="http://www.w3.org/2000/svg">
<g id="user-round-check">
<path id="Vector" d="M2.05859 17.1476C2.05853 15.9249 2.41129 14.7282 3.07454 13.701C3.7378 12.6739 4.68337 11.8599 5.79778 11.3569C6.91218 10.8539 8.14808 10.6831 9.35714 10.8651C10.5662 11.0471 11.6971 11.5741 12.614 12.3829M13.1762 15.5594L14.7645 17.1476L17.9409 13.9712M12.3821 6.8241C12.3821 9.017 10.6044 10.7947 8.41153 10.7947C6.21864 10.7947 4.44095 9.017 4.44095 6.8241C4.44095 4.63121 6.21864 2.85352 8.41153 2.85352C10.6044 2.85352 12.3821 4.63121 12.3821 6.8241Z" stroke="#0065D0" stroke-width="1.58824" stroke-linecap="round" stroke-linejoin="round"/>
</g>
</svg>
