<?xml version="1.0" encoding="UTF-8"?>
<svg xmlns="http://www.w3.org/2000/svg" xmlns:xlink="http://www.w3.org/1999/xlink" width="25px" height="25px" viewBox="0 0 25 25" version="1.1">
<g id="surface1">
<path style=" stroke:none;fill-rule:nonzero;fill:rgb(0%,0%,0%);fill-opacity:1;" d="M 4.039062 0.0742188 C 1.703125 0.515625 0 2.539062 0 4.867188 C 0 5.847656 0.636719 7.800781 1.855469 10.554688 C 2.359375 11.695312 2.492188 11.910156 2.921875 12.308594 C 4.007812 13.328125 5.757812 13.328125 6.847656 12.308594 C 7.277344 11.910156 7.40625 11.695312 7.910156 10.554688 C 8.6875 8.804688 9.472656 6.695312 9.59375 6.039062 L 9.628906 5.859375 L 13.058594 5.859375 C 16.867188 5.859375 16.871094 5.859375 17.53125 6.1875 C 17.792969 6.3125 17.992188 6.464844 18.261719 6.734375 C 18.828125 7.304688 19.058594 7.8125 19.140625 8.6875 C 19.191406 9.234375 19.320312 9.460938 19.679688 9.65625 C 20.109375 9.886719 20.6875 9.722656 20.953125 9.292969 C 21.054688 9.125 21.070312 9.050781 21.066406 8.59375 C 21.054688 7.097656 20.191406 5.554688 18.898438 4.726562 C 18.394531 4.402344 17.894531 4.183594 17.367188 4.042969 C 16.976562 3.933594 16.878906 3.933594 13.320312 3.921875 L 9.671875 3.902344 L 9.621094 3.695312 C 9.535156 3.347656 9.273438 2.730469 9.0625 2.371094 C 8.402344 1.265625 7.300781 0.453125 6.03125 0.140625 C 5.507812 0.0078125 4.546875 -0.0234375 4.039062 0.0742188 Z M 5.492188 2.027344 C 6.046875 2.144531 6.507812 2.402344 6.933594 2.828125 C 7.148438 3.042969 7.367188 3.324219 7.460938 3.5 C 7.648438 3.855469 7.8125 4.457031 7.8125 4.792969 C 7.8125 5.488281 7.265625 7.152344 6.328125 9.300781 C 6.171875 9.648438 5.980469 10.101562 5.894531 10.300781 C 5.804688 10.503906 5.660156 10.742188 5.5625 10.839844 C 5.160156 11.246094 4.425781 11.199219 4.113281 10.75 C 3.871094 10.410156 2.769531 7.761719 2.367188 6.566406 C 1.9375 5.289062 1.878906 4.847656 2.050781 4.179688 C 2.191406 3.621094 2.40625 3.25 2.832031 2.828125 C 3.558594 2.097656 4.496094 1.816406 5.492188 2.027344 Z M 5.492188 2.027344 "/>
<path style=" stroke:none;fill-rule:nonzero;fill:rgb(0%,0%,0%);fill-opacity:1;" d="M 4.550781 3.960938 C 4.464844 3.984375 4.308594 4.089844 4.199219 4.199219 C 3.734375 4.664062 3.859375 5.433594 4.445312 5.75 C 4.875 5.980469 5.453125 5.816406 5.71875 5.386719 C 5.8125 5.238281 5.835938 5.132812 5.835938 4.871094 C 5.835938 4.589844 5.816406 4.519531 5.6875 4.339844 C 5.445312 3.992188 4.964844 3.832031 4.550781 3.960938 Z M 4.550781 3.960938 "/>
<path style=" stroke:none;fill-rule:nonzero;fill:rgb(0%,0%,0%);fill-opacity:1;" d="M 19.273438 11.988281 C 17.496094 12.324219 16.054688 13.574219 15.484375 15.269531 C 15.097656 16.414062 15.171875 17.390625 15.765625 19.15625 L 15.960938 19.726562 L 12.210938 19.726562 C 8.636719 19.726562 8.449219 19.722656 8.085938 19.628906 C 7.105469 19.378906 6.308594 18.632812 6 17.675781 C 5.921875 17.441406 5.890625 17.164062 5.863281 16.617188 C 5.832031 15.894531 5.824219 15.863281 5.683594 15.664062 C 5.285156 15.097656 4.476562 15.097656 4.078125 15.667969 L 3.929688 15.878906 L 3.929688 16.664062 C 3.929688 17.265625 3.957031 17.546875 4.023438 17.847656 C 4.449219 19.683594 5.785156 21.042969 7.640625 21.546875 C 8.023438 21.648438 8.125 21.648438 12.394531 21.679688 L 16.75 21.703125 L 17.132812 22.574219 C 17.597656 23.609375 17.730469 23.828125 18.15625 24.222656 C 19.242188 25.246094 20.992188 25.246094 22.082031 24.222656 C 22.511719 23.824219 22.640625 23.609375 23.144531 22.46875 C 23.976562 20.59375 24.660156 18.746094 24.886719 17.75 C 25.015625 17.183594 25.003906 16.230469 24.863281 15.652344 C 24.738281 15.152344 24.425781 14.457031 24.121094 14.007812 C 23.488281 13.082031 22.402344 12.339844 21.265625 12.054688 C 20.742188 11.921875 19.78125 11.890625 19.273438 11.988281 Z M 20.726562 13.941406 C 22.09375 14.226562 23.144531 15.585938 23.03125 16.917969 C 22.964844 17.714844 22.398438 19.304688 21.234375 21.96875 C 20.933594 22.671875 20.746094 22.894531 20.394531 22.992188 C 19.996094 23.105469 19.554688 22.96875 19.339844 22.664062 C 19.105469 22.332031 17.867188 19.324219 17.53125 18.277344 C 17.167969 17.148438 17.125 16.726562 17.285156 16.09375 C 17.425781 15.535156 17.640625 15.164062 18.066406 14.742188 C 18.792969 14.011719 19.730469 13.730469 20.726562 13.941406 Z M 20.726562 13.941406 "/>
<path style=" stroke:none;fill-rule:nonzero;fill:rgb(0%,0%,0%);fill-opacity:1;" d="M 19.785156 15.875 C 19.699219 15.898438 19.542969 16.003906 19.433594 16.113281 C 18.96875 16.578125 19.09375 17.347656 19.679688 17.664062 C 20.109375 17.894531 20.6875 17.730469 20.953125 17.300781 C 21.046875 17.152344 21.070312 17.046875 21.070312 16.785156 C 21.070312 16.503906 21.050781 16.433594 20.921875 16.253906 C 20.679688 15.90625 20.199219 15.746094 19.785156 15.875 Z M 19.785156 15.875 "/>
</g>
</svg>
