<svg width="22" height="21" viewBox="0 0 22 21" fill="none" xmlns="http://www.w3.org/2000/svg">
<path d="M7.7002 10H7.7102M11.7002 10H11.7102M15.7002 10H15.7102M7.6002 18C9.50877 18.9791 11.7043 19.2443 13.7911 18.7478C15.8779 18.2514 17.7187 17.0259 18.9819 15.2922C20.2451 13.5586 20.8476 11.4308 20.6808 9.29221C20.5139 7.15366 19.5888 5.14502 18.072 3.62824C16.5552 2.11146 14.5466 1.1863 12.408 1.01946C10.2695 0.852628 8.14167 1.45509 6.40802 2.71829C4.67436 3.98149 3.44889 5.82236 2.95242 7.90916C2.45595 9.99596 2.72114 12.1915 3.7002 14.1L1.7002 20L7.6002 18Z" stroke="#9BDCFD" stroke-width="2" stroke-linecap="round" stroke-linejoin="round"/>
</svg>
