<svg width="22" height="22" viewBox="0 0 22 22" fill="none" xmlns="http://www.w3.org/2000/svg">
<path d="M20.2104 14.8901C19.5742 16.3946 18.5792 17.7203 17.3123 18.7514C16.0454 19.7825 14.5452 20.4875 12.9428 20.8049C11.3405 21.1222 9.68483 21.0422 8.12055 20.5719C6.55627 20.1015 5.13103 19.2551 3.96942 18.1067C2.80782 16.9583 1.94522 15.5428 1.45704 13.984C0.968859 12.4252 0.869965 10.7706 1.169 9.16471C1.46804 7.55886 2.1559 6.05071 3.17245 4.77211C4.189 3.49351 5.50329 2.4834 7.0004 1.83008M20.0005 10.9999C20.5525 10.9999 21.0055 10.5509 20.9505 10.0019C20.72 7.70609 19.7026 5.56062 18.0708 3.92924C16.4391 2.29786 14.2934 1.28096 11.9975 1.05092C11.4475 0.99592 10.9995 1.44892 10.9995 2.00092V10.0009C10.9995 10.2661 11.1049 10.5205 11.2924 10.708C11.4799 10.8956 11.7343 11.0009 11.9995 11.0009L20.0005 10.9999Z" stroke="#090A0A" stroke-width="2" stroke-linecap="round" stroke-linejoin="round"/>
</svg>
