<svg width="25" height="20" viewBox="0 0 25 20" fill="none" xmlns="http://www.w3.org/2000/svg">
<path d="M11.3665 15.3334L14.8332 11.8667L18.2998 15.3334L20.1665 13.4667L16.6998 10L20.1665 6.53335L18.2998 4.66669L14.8332 8.13335L11.3665 4.66669L9.49984 6.53335L12.9665 10L9.49984 13.4667L11.3665 15.3334ZM0.166504 10L5.9665 1.80002C6.21095 1.44446 6.52762 1.16669 6.9165 0.966687C7.30539 0.766687 7.72206 0.666687 8.1665 0.666687H21.4998C22.2332 0.666687 22.8609 0.927798 23.3832 1.45002C23.9054 1.97224 24.1665 2.60002 24.1665 3.33335V16.6667C24.1665 17.4 23.9054 18.0278 23.3832 18.55C22.8609 19.0722 22.2332 19.3334 21.4998 19.3334H8.1665C7.72206 19.3334 7.30539 19.2334 6.9165 19.0334C6.52762 18.8334 6.21095 18.5556 5.9665 18.2L0.166504 10Z" fill="#090A0A"/>
</svg>
