<svg width="21" height="21" viewBox="0 0 21 21" fill="none" xmlns="http://www.w3.org/2000/svg">
<path d="M13.125 20V12C13.125 11.7348 13.0196 11.4804 12.8321 11.2929C12.6446 11.1054 12.3902 11 12.125 11H8.125C7.85978 11 7.60543 11.1054 7.41789 11.2929C7.23036 11.4804 7.125 11.7348 7.125 12V20M1.125 8.99997C1.12493 8.70904 1.18833 8.42159 1.31079 8.15768C1.43324 7.89378 1.6118 7.65976 1.834 7.47197L8.834 1.47297C9.19499 1.16788 9.65236 1.00049 10.125 1.00049C10.5976 1.00049 11.055 1.16788 11.416 1.47297L18.416 7.47197C18.6382 7.65976 18.8168 7.89378 18.9392 8.15768C19.0617 8.42159 19.1251 8.70904 19.125 8.99997V18C19.125 18.5304 18.9143 19.0391 18.5392 19.4142C18.1641 19.7893 17.6554 20 17.125 20H3.125C2.59457 20 2.08586 19.7893 1.71079 19.4142C1.33571 19.0391 1.125 18.5304 1.125 18V8.99997Z" stroke="#9BDCFD" stroke-width="2" stroke-linecap="round" stroke-linejoin="round"/>
</svg>
