<svg width="48" height="48" viewBox="0 0 48 48" fill="none" xmlns="http://www.w3.org/2000/svg">
<rect width="48" height="48" rx="24" fill="#0065D0"/>
<path d="M24.0001 25.8293C21.9203 25.8293 20.2344 24.1433 20.2344 22.0636V18.9255C20.2344 18.9255 22.2127 18.9255 24.0001 18.9255C25.7875 18.9255 27.7658 18.9255 27.7658 18.9255V22.0636C27.7658 24.1433 26.0798 25.8293 24.0001 25.8293Z" stroke="white" stroke-width="2" stroke-miterlimit="10"/>
<path d="M27.766 18.9257C27.766 18.9257 24.9936 18.9257 23.5002 18.9257C22.0068 18.9257 20.2346 18.9257 20.2346 18.9257C20.2346 18.9257 18.7163 17.0467 18.3517 16.4152C17.9871 15.7837 21.6058 14.0302 24.0003 14.0302C26.3947 14.0302 29.779 15.9294 29.6488 16.4152C29.5187 16.901 27.766 18.9257 27.766 18.9257Z" stroke="white" stroke-width="2" stroke-miterlimit="10"/>
<path d="M25.3321 25.5867L25.8827 27.7122L30.8171 29.2343C31.6135 29.4733 32.1589 30.2063 32.1589 31.0378V34.0302H15.8408V31.0378C15.8408 30.2063 16.3862 29.4733 17.1826 29.2343L22.117 27.7122L22.6676 25.5867" stroke="white" stroke-width="2" stroke-miterlimit="10"/>
<path d="M22.1172 27.7122L24 29.595L25.8829 27.7122" stroke="white" stroke-width="2" stroke-miterlimit="10"/>
<path d="M24 29.595V33.9884" stroke="white" stroke-width="2" stroke-miterlimit="10"/>
</svg>
