<svg width="20" height="23" viewBox="0 0 20 23" fill="none" xmlns="http://www.w3.org/2000/svg">
<path d="M10.0001 12.8293C7.92032 12.8293 6.23438 11.1433 6.23438 9.06362V5.92554C6.23438 5.92554 8.21268 5.92554 10.0001 5.92554C11.7875 5.92554 13.7658 5.92554 13.7658 5.92554V9.06362C13.7658 11.1433 12.0798 12.8293 10.0001 12.8293Z" stroke="white" stroke-width="2" stroke-miterlimit="10"/>
<path d="M13.766 5.92566C13.766 5.92566 10.9936 5.92566 9.50024 5.92566C8.00685 5.92566 6.23458 5.92566 6.23458 5.92566C6.23458 5.92566 4.71631 4.04668 4.35172 3.41519C3.98713 2.7837 7.60582 1.03024 10.0003 1.03024C12.3947 1.03024 15.779 2.92937 15.6488 3.41519C15.5187 3.90101 13.766 5.92566 13.766 5.92566Z" stroke="white" stroke-width="2" stroke-miterlimit="10"/>
<path d="M11.3321 12.5867L11.8827 14.7122L16.8171 16.2343C17.6135 16.4733 18.1589 17.2063 18.1589 18.0378V21.0302H1.84082V18.0378C1.84082 17.2063 2.38622 16.4733 3.18262 16.2343L8.117 14.7122L8.66762 12.5867" stroke="white" stroke-width="2" stroke-miterlimit="10"/>
<path d="M8.11719 14.7122L10 16.595L11.8829 14.7122" stroke="white" stroke-width="2" stroke-miterlimit="10"/>
<path d="M10 16.595V20.9884" stroke="white" stroke-width="2" stroke-miterlimit="10"/>
</svg>
