<svg width="22" height="21" viewBox="0 0 22 21" fill="none" xmlns="http://www.w3.org/2000/svg">
<path d="M13 9.09758C13 9.62802 12.7893 10.1367 12.4142 10.5118C12.0392 10.8869 11.5304 11.0976 11 11.0976C10.4696 11.0976 9.96087 10.8869 9.5858 10.5118C9.21073 10.1367 9.00001 9.62802 9.00001 9.09758C9.00001 8.03672 9.42144 7.0193 10.1716 6.26916C10.9217 5.51901 11.9391 5.09758 13 5.09758C14.0609 5.09758 15.0783 5.51901 15.8284 6.26916C16.5786 7.0193 17 8.03672 17 9.09758C17 10.6889 16.3679 12.215 15.2427 13.3402C14.1174 14.4654 12.5913 15.0976 11 15.0976C9.40871 15.0976 7.88259 14.4654 6.75737 13.3402C5.63215 12.215 5.00001 10.6889 5.00001 9.09758C5.00001 6.97585 5.84287 4.94102 7.34316 3.44073C8.84345 1.94044 10.8783 1.09758 13 1.09758C15.1217 1.09758 17.1566 1.94044 18.6569 3.44073C20.1572 4.94102 21 6.97585 21 9.09758C21 11.7497 19.9464 14.2933 18.0711 16.1687C16.1957 18.044 13.6522 19.0976 11 19.0976C8.34785 19.0976 5.80431 18.044 3.92894 16.1687C2.05358 14.2933 1.00001 11.7497 1.00001 9.09758C0.996325 6.49118 1.84631 3.95528 3.42001 1.87758C3.57324 1.65161 3.77111 1.45939 4.00144 1.31279C4.23177 1.16618 4.48967 1.06829 4.75927 1.02514C5.02887 0.981986 5.30444 0.994491 5.56902 1.06188C5.8336 1.12927 6.08158 1.25012 6.29769 1.41699C6.51379 1.58385 6.69344 1.7932 6.82557 2.03213C6.9577 2.27105 7.0395 2.5345 7.06595 2.80625C7.0924 3.07799 7.06293 3.35227 6.97936 3.6122C6.89579 3.87212 6.75988 4.11218 6.58001 4.31758" stroke="#090A0A" stroke-width="2" stroke-linecap="round" stroke-linejoin="round"/>
</svg>
