<svg width="24" height="24" viewBox="0 0 24 24" fill="none" xmlns="http://www.w3.org/2000/svg">
<path d="M3 12C3 9.61305 3.94821 7.32387 5.63604 5.63604C7.32387 3.94821 9.61305 3 12 3C14.516 3.00947 16.931 3.99122 18.74 5.74L21 8M21 8V3M21 8H16M21 12C21 14.3869 20.0518 16.6761 18.364 18.364C16.6761 20.0518 14.3869 21 12 21C9.48395 20.9905 7.06897 20.0088 5.26 18.26L3 16M3 16H8M3 16V21" stroke="#090A0A" stroke-width="2" stroke-linecap="round" stroke-linejoin="round"/>
<g filter="url(#filter0_d_2409_7325)">
<rect x="8" y="8" width="8" height="8" rx="4" fill="#D3180C"/>
</g>
<defs>
<filter id="filter0_d_2409_7325" x="4" y="6" width="16" height="16" filterUnits="userSpaceOnUse" color-interpolation-filters="sRGB">
<feFlood flood-opacity="0" result="BackgroundImageFix"/>
<feColorMatrix in="SourceAlpha" type="matrix" values="0 0 0 0 0 0 0 0 0 0 0 0 0 0 0 0 0 0 127 0" result="hardAlpha"/>
<feOffset dy="2"/>
<feGaussianBlur stdDeviation="2"/>
<feComposite in2="hardAlpha" operator="out"/>
<feColorMatrix type="matrix" values="0 0 0 0 0.952941 0 0 0 0 0.34902 0 0 0 0 0.160784 0 0 0 0.32 0"/>
<feBlend mode="normal" in2="BackgroundImageFix" result="effect1_dropShadow_2409_7325"/>
<feBlend mode="normal" in="SourceGraphic" in2="effect1_dropShadow_2409_7325" result="shape"/>
</filter>
</defs>
</svg>
