<svg width="28" height="28" viewBox="0 0 28 28" fill="none" xmlns="http://www.w3.org/2000/svg">
<path d="M1.83325 7.33333V4.66667C1.83325 3.95942 2.1142 3.28115 2.6143 2.78105C3.1144 2.28095 3.79267 2 4.49992 2H7.16659M20.4999 2H23.1666C23.8738 2 24.5521 2.28095 25.0522 2.78105C25.5523 3.28115 25.8333 3.95942 25.8333 4.66667V7.33333M25.8333 20.6667V23.3333C25.8333 24.0406 25.5523 24.7189 25.0522 25.219C24.5521 25.719 23.8738 26 23.1666 26H20.4999M7.16659 26H4.49992C3.79267 26 3.1144 25.719 2.6143 25.219C2.1142 24.7189 1.83325 24.0406 1.83325 23.3333V20.6667M8.49992 16.6667C8.49992 16.6667 10.4999 19.3333 13.8333 19.3333C17.1666 19.3333 19.1666 16.6667 19.1666 16.6667M9.83325 10H9.84659M17.8333 10H17.8466" stroke="#090A0A" stroke-width="2.66667" stroke-linecap="round" stroke-linejoin="round"/>
</svg>
