<svg width="20" height="20" viewBox="0 0 20 20" fill="none" xmlns="http://www.w3.org/2000/svg">
<path d="M9.99927 0.833344C15.0617 0.833344 19.1659 4.93704 19.1663 9.99936C19.1663 15.062 15.0619 19.1664 9.99927 19.1664C4.93699 19.166 0.833252 15.0617 0.833252 9.99936C0.833598 4.93729 4.93721 0.833739 9.99927 0.833344ZM13.0891 6.91147C12.7637 6.58603 12.2368 6.58603 11.9114 6.91147L10.0002 8.8226L8.08911 6.91147C7.76367 6.58603 7.23681 6.58603 6.91138 6.91147C6.58599 7.23691 6.58596 7.76378 6.91138 8.0892L8.82251 10.0003L6.91138 11.9115C6.58599 12.2369 6.58596 12.7638 6.91138 13.0892C7.23682 13.4143 7.76377 13.4145 8.08911 13.0892L10.0002 11.1781L11.9114 13.0892C12.2368 13.4143 12.7638 13.4145 13.0891 13.0892C13.4145 12.7639 13.4143 12.2369 13.0891 11.9115L11.178 10.0003L13.0891 8.0892C13.4145 7.76386 13.4143 7.23693 13.0891 6.91147Z" fill="#72777A"/>
</svg>
