<svg width="48" height="48" viewBox="0 0 48 48" fill="none" xmlns="http://www.w3.org/2000/svg">
<rect width="48" height="48" rx="24" fill="#0065D0"/>
<path d="M20 15.1001V19.0001C20 20.061 20.4214 21.0784 21.1716 21.8285C21.9217 22.5787 22.9391 23.0001 24 23.0001C25.0609 23.0001 26.0783 22.5787 26.8284 21.8285C27.5786 21.0784 28 20.061 28 19.0001V15.1001M21 27L20 26M27 27L28 26M20 31L18 34M28 31L30 34M21 31C18.2 31 16 28.8 16 26V22C16 19.8783 16.8429 17.8434 18.3431 16.3431C19.8434 14.8429 21.8783 14 24 14C26.1217 14 28.1566 14.8429 29.6569 16.3431C31.1571 17.8434 32 19.8783 32 22V26C32 28.8 29.8 31 27 31H21Z" stroke="white" stroke-width="2" stroke-linecap="round" stroke-linejoin="round"/>
</svg>
