<svg width="18" height="22" viewBox="0 0 18 22" fill="none" xmlns="http://www.w3.org/2000/svg">
<path d="M5 2.1001V6.0001C5 7.06096 5.42143 8.07838 6.17157 8.82853C6.92172 9.57867 7.93913 10.0001 9 10.0001C10.0609 10.0001 11.0783 9.57867 11.8284 8.82853C12.5786 8.07838 13 7.06096 13 6.0001V2.1001M6 14L5 13M12 14L13 13M5 18L3 21M13 18L15 21M6 18C3.2 18 1 15.8 1 13V9C1 6.87827 1.84285 4.84344 3.34315 3.34315C4.84344 1.84285 6.87827 1 9 1C11.1217 1 13.1566 1.84285 14.6569 3.34315C16.1571 4.84344 17 6.87827 17 9V13C17 15.8 14.8 18 12 18H6Z" stroke="#0065D0" stroke-width="2" stroke-linecap="round" stroke-linejoin="round"/>
</svg>
