<?xml version="1.0" encoding="UTF-8"?> <svg xmlns="http://www.w3.org/2000/svg" width="1092" height="322" fill="none"> <path fill="#F1CB6D" d="M19.44 57.35h1042.37v168.07H19.44z"></path> <rect x="241.84" y="89.6" width="52.63" height="64.51" rx="2" fill="#fff"></rect> <rect x="486.3" y="89.6" width="52.63" height="64.51" rx="2" fill="#fff"></rect> <rect x="732.47" y="89.6" width="52.63" height="64.51" rx="2" fill="#fff"></rect> <rect x="297.86" y="89.6" width="52.63" height="64.51" rx="2" fill="#fff"></rect> <rect x="34.72" y="89.6" width="62.81" height="64.51" rx="2" fill="#fff"></rect> <rect x="997.3" y="89.6" width="44.14" height="64.51" rx="2" fill="#fff"></rect> <rect x="542.33" y="89.6" width="52.63" height="64.51" rx="2" fill="#fff"></rect> <rect x="788.49" y="89.6" width="52.63" height="64.51" rx="2" fill="#fff"></rect> <path fill="#F9DD9A" d="M19.44 57.35h1042.37v168.07H19.44z"></path> <path fill="#814444" d="M19.44 171.09h1042.37v54.33H19.44z"></path> <rect x="240.14" y="89.6" width="52.63" height="64.51" rx="2" fill="#fff"></rect> <rect x="491.39" y="89.6" width="52.63" height="64.51" rx="2" fill="#fff"></rect> <rect x="742.65" y="89.6" width="52.63" height="64.51" rx="2" fill="#fff"></rect> <rect x="297.86" y="89.6" width="52.63" height="64.51" rx="2" fill="#fff"></rect> <rect x="36.42" y="89.6" width="62.81" height="64.51" rx="2" fill="#fff"></rect> <rect x="993.91" y="89.6" width="44.14" height="64.51" rx="2" fill="#fff"></rect> <rect x="549.12" y="89.6" width="52.63" height="64.51" rx="2" fill="#fff"></rect> <rect x="800.37" y="89.6" width="52.63" height="64.51" rx="2" fill="#fff"></rect> <path fill="#575657" d="M10.95 225.42H1070.3v20.37H10.95z"></path> <path fill="#252525" d="M19.44 245.79h69.6v33.95h-69.6zm402.35 0h237.67v33.95H421.79zm572.12 0h67.91v33.95h-67.91z"></path> <path fill="#F9DD9A" d="M10.95 57.35H1070.3v20.37H10.95z"></path> <path d="M65.28 22.87c76.4 0 823.37-2.87 943.91-2.87 42.44 0 61.11 37.35 61.11 37.35H10.95s28.02-34.48 54.33-34.48Z" fill="#845342"></path> <path d="M59.34 36.98c76.4 0 841.2-1.7 961.73-1.7 21.22 0 49.23 22.07 49.23 22.07H10.95s28.86-20.37 48.39-20.37Z" fill="#C39A4F"></path> <path fill="#222" d="M10.95 171.09h8.49v33.95h-8.49zm1050.86 0h8.49v33.95h-8.49z"></path> <circle opacity=".5" cx="316.54" cy="284.84" r="11.88" fill="#D9D9D9"></circle> <path fill="#222" d="M114.51 245.79h256.35v42.44H114.51z"></path> <circle cx="313.14" cy="283.14" r="22.97" fill="#3C3D3C" stroke="#fff" stroke-width="5"></circle> <path d="M274.1 272.95v-5.09h6.78v5.1h66.21v-5.1h6.8v25.47h-79.8v-20.38Z" fill="#3C3D3C"></path> <circle cx="313.14" cy="283.14" r="11.88" fill="#D9D9D9"></circle> <circle cx="170.53" cy="283.14" r="22.97" fill="#3C3D3C" stroke="#fff" stroke-width="5"></circle> <path d="M131.49 272.95v-5.09h6.79v5.1h66.2v-5.1h6.8v25.47h-79.8v-20.38Z" fill="#3C3D3C"></path> <circle cx="170.53" cy="283.14" r="11.88" fill="#D9D9D9"></circle> <path fill="#3C3D3C" d="M114.51 252.58h256.35v15.28H114.51z"></path> <circle opacity=".5" cx="914.12" cy="284.84" r="11.88" fill="#D9D9D9"></circle> <path fill="#222" d="M712.09 245.79h256.35v42.44H712.09z"></path> <circle cx="910.72" cy="283.14" r="22.97" fill="#3C3D3C" stroke="#fff" stroke-width="5"></circle> <path d="M871.67 272.95v-5.09h6.8v5.1h66.2v-5.1h6.8v25.47h-79.8v-20.38Z" fill="#3C3D3C"></path> <circle cx="910.72" cy="283.14" r="11.88" fill="#D9D9D9"></circle> <circle cx="768.12" cy="283.14" r="22.97" fill="#3C3D3C" stroke="#fff" stroke-width="5"></circle> <path d="M729.07 272.95v-5.09h6.79v5.1h66.21v-5.1h6.79v25.47h-79.79v-20.38Z" fill="#3C3D3C"></path> <circle cx="768.12" cy="283.14" r="11.88" fill="#D9D9D9"></circle> <path fill="#3C3D3C" d="M712.09 252.58h256.35v15.28H712.09z"></path> <path d="M369.16 86.12a5 5 0 0 1 5-5h93.56a5 5 0 0 1 5 5v84.97H369.16V86.12Z" fill="#BD9652"></path> <rect x="374.26" y="87.91" width="42.44" height="67.91" rx="2" fill="#fff"></rect> <rect x="425.19" y="87.91" width="42.44" height="67.91" rx="2" fill="#fff"></rect> <path fill="#763A3A" d="M369.16 171.09h103.56v54.33H369.16z"></path> <path opacity=".2" stroke="#4A2818" d="M420.59 81.12v144.3"></path> <path d="M117.9 86.12a5 5 0 0 1 5-5h93.56a5 5 0 0 1 5 5v84.97H117.92V86.12Z" fill="#BD9652"></path> <rect x="123" y="87.91" width="42.44" height="67.91" rx="2" fill="#fff"></rect> <rect x="173.93" y="87.91" width="42.44" height="67.91" rx="2" fill="#fff"></rect> <path fill="#763A3A" d="M117.91 171.09h103.56v54.33H117.91z"></path> <path opacity=".2" stroke="#4A2818" d="M169.34 81.12v144.3"></path> <path d="M620.42 86.12a5 5 0 0 1 5-5h93.56a5 5 0 0 1 5 5v84.97H620.42V86.12Z" fill="#BD9652"></path> <rect x="625.51" y="87.91" width="42.44" height="67.91" rx="2" fill="#fff"></rect> <rect x="676.44" y="87.91" width="42.44" height="67.91" rx="2" fill="#fff"></rect> <path fill="#763A3A" d="M620.42 171.09h103.56v54.33H620.42z"></path> <path opacity=".2" stroke="#4A2818" d="M671.85 81.12v144.3"></path> <path d="M871.67 86.12a5 5 0 0 1 5-5h93.56a5 5 0 0 1 5 5v84.97H871.67V86.12Z" fill="#BD9652"></path> <rect x="876.77" y="87.91" width="42.44" height="67.91" rx="2" fill="#fff"></rect> <rect x="927.7" y="87.91" width="42.44" height="67.91" rx="2" fill="#fff"></rect> <path fill="#763A3A" d="M871.67 171.09h103.56v54.33H871.67z"></path> <path opacity=".2" stroke="#4A2818" d="M923.11 81.12v144.3"></path> <path fill="#4A2818" d="M19.44 171.09h1042.37v11.88H19.44z"></path> </svg> 